<svg width="44" height="44" viewBox="0 0 44 44" fill="none" xmlns="http://www.w3.org/2000/svg">
<circle cx="22" cy="22" r="22" fill="url(#paint0_linear_364_347)"/>
<path d="M31 13H13C12.1716 13 11.5 13.6716 11.5 14.5V26.5C11.5 27.3284 12.1716 28 13 28H31C31.8284 28 32.5 27.3284 32.5 26.5V14.5C32.5 13.6716 31.8284 13 31 13Z" stroke="white" stroke-width="2" stroke-linejoin="round"/>
<path d="M24.25 31L23.875 28H20.125L19.75 31H24.25Z" fill="white" stroke="white" stroke-width="2" stroke-linecap="round" stroke-linejoin="round"/>
<path d="M27.25 31H16.75" stroke="white" stroke-width="2" stroke-linecap="round" stroke-linejoin="round"/>
<path d="M11.5 24.25V26.5C11.5011 26.8975 11.6595 27.2784 11.9406 27.5594C12.2216 27.8405 12.6025 27.9989 13 28H31C31.3975 27.9989 31.7784 27.8405 32.0594 27.5594C32.3405 27.2784 32.4989 26.8975 32.5 26.5V24.25H11.5ZM22 27.25C21.8517 27.25 21.7067 27.206 21.5833 27.1236C21.46 27.0412 21.3639 26.9241 21.3071 26.787C21.2503 26.65 21.2355 26.4992 21.2644 26.3537C21.2934 26.2082 21.3648 26.0746 21.4697 25.9697C21.5746 25.8648 21.7082 25.7933 21.8537 25.7644C21.9992 25.7355 22.15 25.7503 22.287 25.8071C22.4241 25.8639 22.5412 25.96 22.6236 26.0833C22.706 26.2067 22.75 26.3517 22.75 26.5C22.75 26.6989 22.671 26.8897 22.5303 27.0303C22.3897 27.171 22.1989 27.25 22 27.25Z" fill="white"/>
<defs>
<linearGradient id="paint0_linear_364_347" x1="-6.5599e-07" y1="5" x2="44" y2="50.5" gradientUnits="userSpaceOnUse">
<stop stop-color="#7012CF"/>
<stop offset="1" stop-color="#CD9CFF"/>
</linearGradient>
</defs>
</svg>
