<svg width="14" height="16" viewBox="0 0 14 16" fill="none" xmlns="http://www.w3.org/2000/svg">
<path d="M4 16H1C0.734784 16 0.48043 15.9234 0.292893 15.787C0.105357 15.6506 0 15.4656 0 15.2727V0.727273C0 0.534388 0.105357 0.349404 0.292893 0.213013C0.48043 0.0766233 0.734784 0 1 0H4C4.26522 0 4.51957 0.0766233 4.70711 0.213013C4.89464 0.349404 5 0.534388 5 0.727273V15.2727C5 15.4656 4.89464 15.6506 4.70711 15.787C4.51957 15.9234 4.26522 16 4 16Z" fill="white"/>
<path d="M13 16H10C9.73478 16 9.48043 15.9234 9.29289 15.787C9.10536 15.6506 9 15.4656 9 15.2727V0.727273C9 0.534388 9.10536 0.349404 9.29289 0.213013C9.48043 0.0766233 9.73478 0 10 0H13C13.2652 0 13.5196 0.0766233 13.7071 0.213013C13.8946 0.349404 14 0.534388 14 0.727273V15.2727C14 15.4656 13.8946 15.6506 13.7071 15.787C13.5196 15.9234 13.2652 16 13 16Z" fill="white"/>
</svg>
